<?xml version="1.0" encoding="UTF-8" standalone="no"?>
<svg
   xmlns:dc="http://purl.org/dc/elements/1.1/"
   xmlns:cc="http://creativecommons.org/ns#"
   xmlns:rdf="http://www.w3.org/1999/02/22-rdf-syntax-ns#"
   xmlns:svg="http://www.w3.org/2000/svg"
   xmlns="http://www.w3.org/2000/svg"
   xmlns:sodipodi="http://sodipodi.sourceforge.net/DTD/sodipodi-0.dtd"
   xmlns:inkscape="http://www.inkscape.org/namespaces/inkscape"
   enable-background="new 0 0 512 512"
   height="512px"
   id="Layer_1"
   version="1.1"
   viewBox="0 0 512 512"
   width="512px"
   xml:space="preserve"
   sodipodi:docname="facebook.svg"
   inkscape:version="0.92.3 (2405546, 2018-03-11)"><metadata
     id="metadata1208"><rdf:RDF><cc:Work
         rdf:about=""><dc:format>image/svg+xml</dc:format><dc:type
           rdf:resource="http://purl.org/dc/dcmitype/StillImage" /><dc:title></dc:title></cc:Work></rdf:RDF></metadata><defs
     id="defs1206" /><sodipodi:namedview
     pagecolor="#ffffff"
     bordercolor="#666666"
     borderopacity="1"
     objecttolerance="10"
     gridtolerance="10"
     guidetolerance="10"
     inkscape:pageopacity="0"
     inkscape:pageshadow="2"
     inkscape:window-width="1366"
     inkscape:window-height="705"
     id="namedview1204"
     showgrid="false"
     inkscape:zoom="1.046875"
     inkscape:cx="49.671642"
     inkscape:cy="256"
     inkscape:window-x="-8"
     inkscape:window-y="-8"
     inkscape:window-maximized="1"
     inkscape:current-layer="Layer_1" /><g
     id="facebook"
     style="fill:#4554b0;fill-opacity:0.99215686"
     inkscape:export-filename="C:\Repos\CurriculumVitae\img\facebook.png"
     inkscape:export-xdpi="12.85"
     inkscape:export-ydpi="12.85"><path
       d="M278.5,219.5v-26.998c0-12.187,2.946-18.002,21.864-18.002H323.5v-45h-39.007   c-48.535,0-63.993,21.553-63.993,59.744V219.5h-33v46h33v136h58v-136h40.216l5.385-46H278.5z"
       fill="#344C8A"
       id="path1198"
       style="fill:#4554b0;fill-opacity:0.99215686" /><path
       d="M254.5,16.5c-131.996,0-239,107.004-239,239s107.004,239,239,239s239-107.004,239-239   S386.496,16.5,254.5,16.5z M412.892,413.892C370.584,456.2,314.333,479.5,254.5,479.5c-59.833,0-116.084-23.3-158.392-65.608   C53.8,371.584,30.5,315.333,30.5,255.5c0-59.833,23.3-116.084,65.608-158.392C138.416,54.8,194.667,31.5,254.5,31.5   c59.833,0,116.084,23.3,158.392,65.608C455.2,139.416,478.5,195.667,478.5,255.5C478.5,315.333,455.2,371.584,412.892,413.892z"
       fill="#344C8A"
       id="path1200"
       style="fill:#4554b0;fill-opacity:0.99215686" /></g></svg>