<?xml version="1.0" encoding="UTF-8" standalone="no"?>
<svg
   xmlns:dc="http://purl.org/dc/elements/1.1/"
   xmlns:cc="http://creativecommons.org/ns#"
   xmlns:rdf="http://www.w3.org/1999/02/22-rdf-syntax-ns#"
   xmlns:svg="http://www.w3.org/2000/svg"
   xmlns="http://www.w3.org/2000/svg"
   xmlns:xlink="http://www.w3.org/1999/xlink"
   xmlns:sodipodi="http://sodipodi.sourceforge.net/DTD/sodipodi-0.dtd"
   xmlns:inkscape="http://www.inkscape.org/namespaces/inkscape"
   inkscape:version="1.0 (4035a4fb49, 2020-05-01)"
   sodipodi:docname="instagram.svg"
   xml:space="preserve"
   width="512px"
   viewBox="0 0 512 512"
   version="1.1"
   id="Layer_1"
   height="512px"
   enable-background="new 0 0 512 512"><metadata
     id="metadata12"><rdf:RDF><cc:Work
         rdf:about=""><dc:format>image/svg+xml</dc:format><dc:type
           rdf:resource="http://purl.org/dc/dcmitype/StillImage" /></cc:Work></rdf:RDF></metadata><defs
     id="defs10"><linearGradient
       id="linearGradient857-1"
       inkscape:collect="always"><stop
         id="stop853"
         offset="0"
         style="stop-color:#df993d;stop-opacity:1" /><stop
         style="stop-color:#c32a67;stop-opacity:1"
         offset="0.48541728"
         id="stop866" /><stop
         id="stop855"
         offset="1"
         style="stop-color:#7623be;stop-opacity:1" /></linearGradient><linearGradient
       gradientUnits="userSpaceOnUse"
       y2="153.74986"
       x2="261.32266"
       y1="355.8945"
       x1="260.53073"
       id="linearGradient859"
       xlink:href="#linearGradient857-1"
       inkscape:collect="always" /><linearGradient
       gradientUnits="userSpaceOnUse"
       y2="255.5"
       x2="493.5"
       y1="255.5"
       x1="15.5"
       id="linearGradient874"
       xlink:href="#linearGradient857-1"
       inkscape:collect="always" /></defs><sodipodi:namedview
     inkscape:current-layer="Layer_1"
     inkscape:window-maximized="0"
     inkscape:window-y="23"
     inkscape:window-x="1388"
     inkscape:cy="241.90701"
     inkscape:cx="158.6435"
     inkscape:zoom="0.73709606"
     showgrid="false"
     id="namedview8"
     inkscape:window-height="604"
     inkscape:window-width="1175"
     inkscape:pageshadow="2"
     inkscape:pageopacity="0"
     guidetolerance="10"
     gridtolerance="10"
     objecttolerance="10"
     borderopacity="1"
     bordercolor="#666666"
     pagecolor="#ffffff" /><g
     inkscape:export-ydpi="12.853557"
     inkscape:export-xdpi="12.853557"
     inkscape:export-filename="C:\Repos\gbeto21-api\images\instagram.png"
     id="g878"><path
       id="path2"
       fill="#2a527a"
       d="m 254.5,16.5 c -131.996,0 -239,107.004 -239,239 0,131.996 107.004,239 239,239 131.996,0 239,-107.004 239,-239 0,-131.996 -107.004,-239 -239,-239 z M 412.892,413.892 C 370.584,456.2 314.333,479.5 254.5,479.5 194.667,479.5 138.416,456.2 96.108,413.892 53.8,371.584 30.5,315.333 30.5,255.5 30.5,195.667 53.8,139.416 96.108,97.108 138.416,54.8 194.667,31.5 254.5,31.5 c 59.833,0 116.084,23.3 158.392,65.608 42.308,42.308 65.608,98.559 65.608,158.392 0,59.833 -23.3,116.084 -65.608,158.392 z"
       style="fill:url(#linearGradient874);fill-opacity:1" /><path
       id="path4"
       fill-rule="evenodd"
       fill="#2a527a"
       d="m 171.864,142.5 h 168.008 c 15.961,0 28.628,12.612 28.628,28.571 v 168.012 c 0,15.957 -12.666,29.418 -28.628,29.418 H 171.864 c -15.957,0 -29.364,-13.46 -29.364,-29.418 V 171.071 c 0,-15.959 13.407,-28.571 29.364,-28.571 z m 135.644,25 c -5.6,0 -10.008,4.25 -10.008,9.847 v 24.358 c 0,5.597 4.408,9.795 10.008,9.795 h 25.548 c 5.6,0 10.444,-4.198 10.444,-9.795 v -24.358 c 0,-5.597 -4.844,-9.847 -10.444,-9.847 z m 35.992,70 h -20.053 c 1.879,6 2.896,12.728 2.896,19.469 0,37.596 -31.458,68.107 -70.259,68.107 -38.803,0 -70.257,-30.53 -70.257,-68.126 0,-6.741 1.015,-13.45 2.898,-19.45 H 167.5 v 95.627 c 0,4.944 4.51,9.373 9.451,9.373 h 157.402 c 4.945,0 9.147,-4.429 9.147,-9.373 z m -87.416,-26.9 c -25.071,0 -45.396,19.693 -45.396,43.987 0,24.294 20.325,43.987 45.396,43.987 25.073,0 45.396,-19.693 45.396,-43.987 0,-24.294 -20.323,-43.987 -45.396,-43.987 z"
       clip-rule="evenodd"
       style="fill:url(#linearGradient859);fill-opacity:1" /></g></svg>
